<svg width="24" height="24" viewBox="0 0 24 24" fill="none" xmlns="http://www.w3.org/2000/svg">
<rect width="24" height="24" rx="12" fill="#7459D9"/>
<path d="M12.833 6.16666C12.833 5.70642 12.4599 5.33333 11.9997 5.33333C11.5394 5.33333 11.1663 5.70642 11.1663 6.16666V11.1667H6.16634C5.7061 11.1667 5.33301 11.5398 5.33301 12C5.33301 12.4602 5.7061 12.8333 6.16634 12.8333H11.1663V17.8333C11.1663 18.2936 11.5394 18.6667 11.9997 18.6667C12.4599 18.6667 12.833 18.2936 12.833 17.8333V12.8333H17.833C18.2932 12.8333 18.6663 12.4602 18.6663 12C18.6663 11.5398 18.2932 11.1667 17.833 11.1667H12.833V6.16666Z" fill="white"/>
</svg>
